<svg xmlns="http://www.w3.org/2000/svg" viewBox="0 0 200 200" width="200" height="200">
  <g transform="translate(100,100)" fill="#C97B5A" stroke="none">
    <!-- Filled petal shapes radiating from center using polygons -->
    <ellipse cx="0" cy="-45" rx="5" ry="35" transform="rotate(0)"/>
    <ellipse cx="0" cy="-45" rx="5" ry="35" transform="rotate(22.5)"/>
    <ellipse cx="0" cy="-45" rx="5" ry="35" transform="rotate(45)"/>
    <ellipse cx="0" cy="-45" rx="5" ry="35" transform="rotate(67.5)"/>
    <ellipse cx="0" cy="-45" rx="5" ry="35" transform="rotate(90)"/>
    <ellipse cx="0" cy="-45" rx="5" ry="35" transform="rotate(112.5)"/>
    <ellipse cx="0" cy="-45" rx="5" ry="35" transform="rotate(135)"/>
    <ellipse cx="0" cy="-45" rx="5" ry="35" transform="rotate(157.5)"/>
    <ellipse cx="0" cy="-45" rx="5" ry="35" transform="rotate(180)"/>
    <ellipse cx="0" cy="-45" rx="5" ry="35" transform="rotate(202.5)"/>
    <ellipse cx="0" cy="-45" rx="5" ry="35" transform="rotate(225)"/>
    <ellipse cx="0" cy="-45" rx="5" ry="35" transform="rotate(247.5)"/>
    <ellipse cx="0" cy="-45" rx="5" ry="35" transform="rotate(270)"/>
    <ellipse cx="0" cy="-45" rx="5" ry="35" transform="rotate(292.5)"/>
    <ellipse cx="0" cy="-45" rx="5" ry="35" transform="rotate(315)"/>
    <ellipse cx="0" cy="-45" rx="5" ry="35" transform="rotate(337.5)"/>
    <!-- Center -->
    <circle cx="0" cy="0" r="14"/>
  </g>
</svg>
